<mxfile host="app.diagrams.net" modified="2021-03-07T14:19:06.097Z" agent="5.0 (Windows)" etag="ROOXRcvJA7fuLLHowkXk" version="14.4.4" type="github">
  <diagram name="Page-1" id="74b105a0-9070-1c63-61bc-23e55f88626e">
    <mxGraphModel dx="2062" dy="1133" grid="1" gridSize="10" guides="1" tooltips="1" connect="1" arrows="1" fold="1" page="1" pageScale="1.5" pageWidth="1169" pageHeight="826" background="none" math="0" shadow="0">
      <root>
        <mxCell id="0" style=";html=1;" />
        <mxCell id="1" style=";html=1;" parent="0" />
        <mxCell id="CgR4LVH8h-bxsqekuIQA-4" value="" style="shape=ext;double=1;rounded=0;whiteSpace=wrap;html=1;" vertex="1" parent="1">
          <mxGeometry x="480" y="200" width="920" height="720" as="geometry" />
        </mxCell>
        <mxCell id="10b056a9c633e61c-30" value="Title" style="text;strokeColor=none;fillColor=none;html=1;fontSize=24;fontStyle=1;verticalAlign=middle;align=center;" parent="1" vertex="1">
          <mxGeometry x="80" y="40" width="1590" height="40" as="geometry" />
        </mxCell>
        <mxCell id="CgR4LVH8h-bxsqekuIQA-19" value="" style="edgeStyle=orthogonalEdgeStyle;rounded=0;orthogonalLoop=1;jettySize=auto;html=1;" edge="1" parent="1" source="CgR4LVH8h-bxsqekuIQA-1" target="CgR4LVH8h-bxsqekuIQA-4">
          <mxGeometry relative="1" as="geometry" />
        </mxCell>
        <mxCell id="CgR4LVH8h-bxsqekuIQA-1" value="客户端" style="rounded=0;whiteSpace=wrap;html=1;fillColor=#b0e3e6;strokeColor=#0e8088;" vertex="1" parent="1">
          <mxGeometry x="110" y="440" width="120" height="240" as="geometry" />
        </mxCell>
        <mxCell id="CgR4LVH8h-bxsqekuIQA-6" value="权限校验" style="rounded=1;whiteSpace=wrap;html=1;fillColor=#dae8fc;strokeColor=#6c8ebf;" vertex="1" parent="1">
          <mxGeometry x="590" y="440" width="120" height="240" as="geometry" />
        </mxCell>
        <mxCell id="CgR4LVH8h-bxsqekuIQA-7" value="公开接口" style="ellipse;whiteSpace=wrap;html=1;aspect=fixed;fillColor=#d5e8d4;strokeColor=#82b366;" vertex="1" parent="1">
          <mxGeometry x="875" y="220" width="180" height="180" as="geometry" />
        </mxCell>
        <mxCell id="CgR4LVH8h-bxsqekuIQA-8" value="用户接口 / 需要登录" style="ellipse;whiteSpace=wrap;html=1;aspect=fixed;fillColor=#fff2cc;strokeColor=#d6b656;" vertex="1" parent="1">
          <mxGeometry x="870" y="470" width="180" height="180" as="geometry" />
        </mxCell>
        <mxCell id="CgR4LVH8h-bxsqekuIQA-9" value="授权接口 / 需要系统授权" style="ellipse;whiteSpace=wrap;html=1;aspect=fixed;fillColor=#f8cecc;strokeColor=#b85450;" vertex="1" parent="1">
          <mxGeometry x="870" y="710" width="180" height="180" as="geometry" />
        </mxCell>
        <mxCell id="CgR4LVH8h-bxsqekuIQA-13" value="" style="edgeStyle=orthogonalEdgeStyle;rounded=0;orthogonalLoop=1;jettySize=auto;html=1;" edge="1" parent="1" source="CgR4LVH8h-bxsqekuIQA-10" target="CgR4LVH8h-bxsqekuIQA-8">
          <mxGeometry relative="1" as="geometry" />
        </mxCell>
        <mxCell id="CgR4LVH8h-bxsqekuIQA-10" value="用户信息" style="rounded=0;whiteSpace=wrap;html=1;fillColor=#b1ddf0;strokeColor=#10739e;" vertex="1" parent="1">
          <mxGeometry x="1130" y="505" width="210" height="110" as="geometry" />
        </mxCell>
        <mxCell id="CgR4LVH8h-bxsqekuIQA-14" value="" style="edgeStyle=orthogonalEdgeStyle;rounded=0;orthogonalLoop=1;jettySize=auto;html=1;" edge="1" parent="1" source="CgR4LVH8h-bxsqekuIQA-11" target="CgR4LVH8h-bxsqekuIQA-9">
          <mxGeometry relative="1" as="geometry" />
        </mxCell>
        <mxCell id="CgR4LVH8h-bxsqekuIQA-11" value="授权信息 / RABC" style="rounded=0;whiteSpace=wrap;html=1;fillColor=#b1ddf0;strokeColor=#10739e;" vertex="1" parent="1">
          <mxGeometry x="1130" y="745" width="210" height="110" as="geometry" />
        </mxCell>
        <mxCell id="CgR4LVH8h-bxsqekuIQA-17" value="" style="endArrow=classic;html=1;exitX=0.5;exitY=1;exitDx=0;exitDy=0;entryX=0.5;entryY=0;entryDx=0;entryDy=0;" edge="1" parent="1" source="CgR4LVH8h-bxsqekuIQA-10" target="CgR4LVH8h-bxsqekuIQA-11">
          <mxGeometry width="50" height="50" relative="1" as="geometry">
            <mxPoint x="850" y="600" as="sourcePoint" />
            <mxPoint x="900" y="550" as="targetPoint" />
          </mxGeometry>
        </mxCell>
        <mxCell id="CgR4LVH8h-bxsqekuIQA-18" value="外部权限校验" style="ellipse;shape=cloud;whiteSpace=wrap;html=1;fillColor=#e1d5e7;strokeColor=#9673a6;" vertex="1" parent="1">
          <mxGeometry x="240" y="130" width="200" height="180" as="geometry" />
        </mxCell>
        <mxCell id="CgR4LVH8h-bxsqekuIQA-20" value="" style="endArrow=classic;html=1;exitX=0;exitY=0.5;exitDx=0;exitDy=0;entryX=0;entryY=0.5;entryDx=0;entryDy=0;" edge="1" parent="1" source="CgR4LVH8h-bxsqekuIQA-4" target="CgR4LVH8h-bxsqekuIQA-6">
          <mxGeometry width="50" height="50" relative="1" as="geometry">
            <mxPoint x="650" y="810" as="sourcePoint" />
            <mxPoint x="700" y="760" as="targetPoint" />
          </mxGeometry>
        </mxCell>
        <mxCell id="CgR4LVH8h-bxsqekuIQA-21" value="" style="endArrow=classic;html=1;entryX=0;entryY=0.5;entryDx=0;entryDy=0;exitX=1;exitY=0.5;exitDx=0;exitDy=0;" edge="1" parent="1" source="CgR4LVH8h-bxsqekuIQA-6" target="CgR4LVH8h-bxsqekuIQA-7">
          <mxGeometry width="50" height="50" relative="1" as="geometry">
            <mxPoint x="660" y="555" as="sourcePoint" />
            <mxPoint x="710" y="505" as="targetPoint" />
          </mxGeometry>
        </mxCell>
        <mxCell id="CgR4LVH8h-bxsqekuIQA-22" value="" style="endArrow=classic;html=1;exitX=1;exitY=0.5;exitDx=0;exitDy=0;entryX=0;entryY=0.5;entryDx=0;entryDy=0;" edge="1" parent="1" source="CgR4LVH8h-bxsqekuIQA-6" target="CgR4LVH8h-bxsqekuIQA-8">
          <mxGeometry width="50" height="50" relative="1" as="geometry">
            <mxPoint x="850" y="600" as="sourcePoint" />
            <mxPoint x="900" y="550" as="targetPoint" />
          </mxGeometry>
        </mxCell>
        <mxCell id="CgR4LVH8h-bxsqekuIQA-23" value="" style="endArrow=classic;html=1;exitX=1;exitY=0.5;exitDx=0;exitDy=0;entryX=0;entryY=0.5;entryDx=0;entryDy=0;" edge="1" parent="1" source="CgR4LVH8h-bxsqekuIQA-6" target="CgR4LVH8h-bxsqekuIQA-9">
          <mxGeometry width="50" height="50" relative="1" as="geometry">
            <mxPoint x="850" y="600" as="sourcePoint" />
            <mxPoint x="900" y="550" as="targetPoint" />
          </mxGeometry>
        </mxCell>
        <mxCell id="CgR4LVH8h-bxsqekuIQA-24" value="" style="endArrow=classic;html=1;entryX=0.31;entryY=0.8;entryDx=0;entryDy=0;entryPerimeter=0;exitX=1;exitY=0.5;exitDx=0;exitDy=0;" edge="1" parent="1" source="CgR4LVH8h-bxsqekuIQA-1" target="CgR4LVH8h-bxsqekuIQA-18">
          <mxGeometry width="50" height="50" relative="1" as="geometry">
            <mxPoint x="480" y="560" as="sourcePoint" />
            <mxPoint x="530" y="510" as="targetPoint" />
          </mxGeometry>
        </mxCell>
        <mxCell id="CgR4LVH8h-bxsqekuIQA-25" value="" style="endArrow=classic;html=1;exitX=0.8;exitY=0.8;exitDx=0;exitDy=0;exitPerimeter=0;" edge="1" parent="1" source="CgR4LVH8h-bxsqekuIQA-18">
          <mxGeometry width="50" height="50" relative="1" as="geometry">
            <mxPoint x="580" y="350" as="sourcePoint" />
            <mxPoint x="480" y="560" as="targetPoint" />
          </mxGeometry>
        </mxCell>
      </root>
    </mxGraphModel>
  </diagram>
</mxfile>
